<svg height="937pt" viewBox="0 -31 937.04 937" width="937pt" xmlns="http://www.w3.org/2000/svg" xmlns:xlink="http://www.w3.org/1999/xlink"><linearGradient id="a"><stop offset="0" stop-color="#fc5c7d"/><stop offset=".129" stop-color="#f35e85"/><stop offset=".343" stop-color="#d9659b"/><stop offset=".616" stop-color="#b070bf"/><stop offset=".934" stop-color="#777ff0"/><stop offset="1" stop-color="#6a82fb"/></linearGradient><linearGradient id="b" gradientTransform="matrix(.999958 0 0 -.999958 0 895.511828)" gradientUnits="userSpaceOnUse" x1="249.877" x2="249.877" xlink:href="#a" y1="1014.4566" y2="-30.3103"/><linearGradient id="c" gradientTransform="matrix(.999958 0 0 -.999958 0 895.511828)" gradientUnits="userSpaceOnUse" x1="140.5558" x2="140.5558" xlink:href="#a" y1="1014.4566" y2="-30.3103"/><linearGradient id="d" gradientTransform="matrix(.999958 0 0 -.999958 0 895.511828)" gradientUnits="userSpaceOnUse" x1="359.1982" x2="359.1982" xlink:href="#a" y1="1014.4566" y2="-30.3103"/><linearGradient id="e" gradientTransform="matrix(.999958 0 0 -.999958 0 895.511828)" gradientUnits="userSpaceOnUse" x1="687.1618" x2="687.1618" xlink:href="#a" y1="1014.4566" y2="-30.3103"/><linearGradient id="f" gradientTransform="matrix(.999958 0 0 -.999958 0 895.511828)" gradientUnits="userSpaceOnUse" x1="203.0251" x2="203.0251" xlink:href="#a" y1="1014.4566" y2="-30.3103"/><linearGradient id="g" gradientTransform="matrix(.999958 0 0 -.999958 0 895.511828)" gradientUnits="userSpaceOnUse" x1="312.3463" x2="312.3463" xlink:href="#a" y1="1014.4566" y2="-30.3103"/><linearGradient id="h" gradientTransform="matrix(.999958 0 0 -.999958 0 895.511828)" gradientUnits="userSpaceOnUse" x1="218.6424" x2="218.6424" xlink:href="#a" y1="1014.4566" y2="-30.3103"/><linearGradient id="i" gradientTransform="matrix(.999958 0 0 -.999958 0 895.511828)" gradientUnits="userSpaceOnUse" x1="327.9636" x2="327.9636" xlink:href="#a" y1="1014.4566" y2="-30.3103"/><linearGradient id="j" gradientTransform="matrix(.999958 0 0 -.999958 0 895.511828)" gradientUnits="userSpaceOnUse" x1="702.7791" x2="702.7791" xlink:href="#a" y1="1014.4566" y2="-30.3103"/><linearGradient id="k" gradientTransform="matrix(.999958 0 0 -.999958 0 895.511828)" gradientUnits="userSpaceOnUse" x1="819.9089" x2="819.9089" xlink:href="#a" y1="1014.4566" y2="-30.3103"/><path d="m378.109375 269.75-65.777344-16.445312v-10.148438c19.59375-13.394531 31.289063-35.613281 31.234375-59.34375v-90.09375c0-51.75-41.949218-93.6992188-93.699218-93.6992188s-93.699219 41.9492188-93.699219 93.6992188v90.015625c-.082031 23.757813 11.617187 46.015625 31.230469 59.421875v10.148438l-65.777344 16.445312c-34.785156 8.65625-59.1875 39.910156-59.152344 75.757812v107.394532h31.230469v-107.394532c-.003907-21.5 14.625-40.246093 35.484375-45.460937l77.613281-19.398437c6.957031-1.734376 11.835937-7.980469 11.839844-15.148438v-31.230469c0-5.921875-3.34375-11.332031-8.636719-13.980469-13.894531-6.871093-22.660156-21.058593-22.597656-36.558593v-90.011719c0-34.5 27.964844-62.46875 62.464844-62.46875s62.46875 27.96875 62.46875 62.46875v90.011719c.0625 15.5-8.703126 29.6875-22.597657 36.558593-5.296875 2.648438-8.640625 8.058594-8.636719 13.980469v31.230469c.003907 7.167969 4.882813 13.414062 11.839844 15.148438l77.613282 19.398437c20.855468 5.214844 35.484374 23.960937 35.480468 45.460937v107.394532h31.234375v-107.394532c.03125-35.847656-24.375-67.101562-59.160156-75.757812zm0 0" fill="url(#b)"/><path d="m124.933594 374.816406h31.234375v109.316406h-31.234375zm0 0" fill="url(#c)"/><path d="m343.566406 374.816406h31.234375v109.316406h-31.234375zm0 0" fill="url(#d)"/><g fill="url(#e)"><path d="m858.917969 62.484375h-281.101563c-8.625 0-15.617187 6.992187-15.617187 15.617187v31.234376h-62.464844v31.234374h62.464844v31.230469c0 8.625 6.992187 15.617188 15.617187 15.617188h281.101563c8.625 0 15.617187-6.992188 15.617187-15.617188v-93.699219c0-8.625-6.996094-15.617187-15.617187-15.617187zm-265.484375 31.234375h62.464844v62.464844h-62.464844zm249.867187 62.464844h-156.167969v-62.464844h156.167969zm0 0"/><path d="m858.917969 249.886719h-281.101563c-8.625 0-15.617187 6.992187-15.617187 15.613281v31.234375h-62.464844v31.234375h62.464844v31.234375c0 8.625 6.992187 15.617187 15.617187 15.617187h281.101563c8.625 0 15.617187-6.992187 15.617187-15.617187v-93.699219c0-8.625-6.996094-15.617187-15.617187-15.617187zm-265.484375 31.230469h187.398437v62.46875h-187.398437zm249.867187 62.46875h-31.234375v-62.46875h31.234375zm0 0"/><path d="m858.917969 437.285156h-281.101563c-8.625 0-15.617187 6.992188-15.617187 15.617188v31.230468h-62.464844v31.234376h62.464844v31.234374c0 8.625 6.992187 15.617188 15.617187 15.617188h281.101563c8.625 0 15.617187-6.992188 15.617187-15.617188v-93.699218c0-8.625-6.996094-15.617188-15.617187-15.617188zm-265.484375 31.234375h124.933594v62.464844h-124.933594zm249.867187 62.464844h-93.699219v-62.464844h93.699219zm0 0"/><path d="m858.917969 624.683594h-281.101563c-8.625 0-15.617187 6.992187-15.617187 15.617187v31.234375h-62.464844v31.234375h62.464844v31.234375c0 8.621094 6.992187 15.613282 15.617187 15.613282h281.101563c8.625 0 15.617187-6.992188 15.617187-15.613282v-93.703125c0-8.625-6.996094-15.617187-15.617187-15.617187zm-265.484375 31.234375h62.464844v62.46875h-62.464844zm249.867187 62.46875h-156.167969v-62.46875h156.167969zm0 0"/></g><path d="m187.398438 593.453125h31.234374v31.234375h-31.234374zm0 0" fill="url(#f)"/><path d="m249.867188 593.453125h124.933593v31.234375h-124.933593zm0 0" fill="url(#g)"/><path d="m124.933594 655.917969h249.867187v31.234375h-249.867187zm0 0" fill="url(#b)"/><path d="m124.933594 718.386719h187.402344v31.230469h-187.402344zm0 0" fill="url(#h)"/><path d="m421.648438 530.984375h-118.464844l-42.277344-42.273437c-6.097656-6.097657-15.980469-6.097657-22.082031 0l-42.273438 42.273437h-118.46875c-8.621093 0-15.613281 6.992187-15.613281 15.617187v249.867188c0 8.625 6.992188 15.613281 15.613281 15.613281h343.570313c8.621094 0 15.613281-6.988281 15.613281-15.613281v-249.867188c0-8.625-6.992187-15.617187-15.617187-15.617187zm-15.617188 249.867187h-312.332031v-218.632812h109.316406c4.144531 0 8.113281-1.648438 11.042969-4.578125l35.808594-35.808594 35.808593 35.808594c2.925781 2.929687 6.898438 4.578125 11.039063 4.578125h109.316406zm0 0" fill="url(#b)"/><path d="m31.234375 812.085938v-46.851563h-31.234375v46.851563c0 34.5 27.96875 62.464843 62.464844 62.464843h218.632812v-31.230469h-218.632812c-17.246094 0-31.230469-13.984374-31.230469-31.234374zm0 0" fill="url(#c)"/><path d="m312.332031 843.320312h31.234375v31.230469h-31.234375zm0 0" fill="url(#i)"/><path d="m609.050781 780.851562h187.398438v31.234376h-187.398438zm0 0" fill="url(#j)"/><path d="m874.535156.0195312h-171.785156v31.2343748h171.785156c17.246094 0 31.230469 13.980469 31.230469 31.230469v31.234375h31.234375v-31.234375c0-34.5-27.96875-62.4648438-62.464844-62.4648438zm0 0" fill="url(#k)"/></svg>