<?xml version="1.0" encoding="UTF-8"?>
<svg xmlns="http://www.w3.org/2000/svg" xmlns:xlink="http://www.w3.org/1999/xlink" id="Gradient" viewBox="0 0 512 512" width="512" height="512"><defs><linearGradient id="linear-gradient" x1="256" y1="496" x2="256" y2="16" gradientUnits="userSpaceOnUse"><stop offset="0" stop-color="#12bee5"/><stop offset="0.5" stop-color="#c071e9"/><stop offset="1" stop-color="#f24f5a"/></linearGradient></defs><path d="M338.343,242.343a8,8,0,0,0,11.314,11.314l16-16a8,8,0,0,0,0-11.314l-16-16a8,8,0,0,0-11.314,11.314L340.686,224H254.624A24.119,24.119,0,0,0,240,209.376V155.314l2.343,2.343a8,8,0,0,0,11.314-11.314l-16-16a8,8,0,0,0-11.314,0l-16,16a8,8,0,0,0,11.314,11.314L224,155.314v54.062A24,24,0,1,0,254.624,240h86.062ZM232,240a8,8,0,1,1,8-8A8.009,8.009,0,0,1,232,240ZM488,360H468.684a87.041,87.041,0,0,0-7.844-18.9l13.67-13.67a8,8,0,0,0,0-11.313L451.883,293.49a8,8,0,0,0-11.315,0l-2.083,2.084A215.8,215.8,0,1,0,295.574,438.485l-2.084,2.084a8,8,0,0,0,0,11.313l22.627,22.628a8,8,0,0,0,11.315,0l13.67-13.67a86.942,86.942,0,0,0,18.9,7.844V488a8,8,0,0,0,8,8h32a8,8,0,0,0,8-8V468.684a86.942,86.942,0,0,0,18.9-7.844l13.67,13.67a8,8,0,0,0,11.315,0l22.627-22.628a8,8,0,0,0,0-11.313L460.84,426.9a87.041,87.041,0,0,0,7.844-18.9H488a8,8,0,0,0,8-8V368A8,8,0,0,0,488,360ZM32,232C32,121.72,121.72,32,232,32s200,89.72,200,200a198.721,198.721,0,0,1-13.058,71.226A86.773,86.773,0,0,0,408,299.316V285.8a184.052,184.052,0,0,0,8-53.8c0-101.458-82.542-184-184-184S48,130.542,48,232s82.542,184,184,184a184.069,184.069,0,0,0,53.387-7.867l-.041-.133h13.97a86.883,86.883,0,0,0,3.909,10.939A198.72,198.72,0,0,1,232,432C121.72,432,32,342.28,32,232Zm261.49,95.431,13.67,13.67a87.041,87.041,0,0,0-7.844,18.9H280a8,8,0,0,0-8,8v27.181a168.068,168.068,0,0,1-32,4.608V392a8,8,0,0,0-16,0v7.805a167.354,167.354,0,0,1-104.948-43.544l5.468-5.467a8,8,0,1,0-11.313-11.314l-5.468,5.468A167.354,167.354,0,0,1,64.195,240H72a8,8,0,0,0,0-16H64.195a167.354,167.354,0,0,1,43.544-104.948l5.468,5.468a8,8,0,1,0,11.313-11.314l-5.468-5.467A167.354,167.354,0,0,1,224,64.195V72a8,8,0,0,0,16,0V64.195a167.354,167.354,0,0,1,104.948,43.544l-5.468,5.467a8,8,0,1,0,11.313,11.314l5.468-5.468A167.354,167.354,0,0,1,399.805,224H392a8,8,0,0,0,0,16h7.805a168.047,168.047,0,0,1-4.6,32H368a8,8,0,0,0-8,8v19.316a86.942,86.942,0,0,0-18.9,7.844l-13.67-13.67a8,8,0,0,0-11.315,0L293.49,316.118A8,8,0,0,0,293.49,327.431ZM480,392H462.4a8,8,0,0,0-7.839,6.409,71.276,71.276,0,0,1-10.492,25.281,8,8,0,0,0,1.013,10.075l12.461,12.461L446.226,457.54l-12.461-12.461a8,8,0,0,0-10.076-1.014,71.268,71.268,0,0,1-25.281,10.492A8,8,0,0,0,392,462.4V480H376V462.4a8,8,0,0,0-6.408-7.839,71.268,71.268,0,0,1-25.281-10.492,8,8,0,0,0-10.076,1.014L321.774,457.54l-11.313-11.314,12.461-12.461a8,8,0,0,0,1.013-10.075,71.276,71.276,0,0,1-10.492-25.281A8,8,0,0,0,305.6,392H288V376h17.6a8,8,0,0,0,7.839-6.409,71.276,71.276,0,0,1,10.492-25.281,8,8,0,0,0-1.013-10.075l-12.461-12.461,11.313-11.314,12.461,12.461a8,8,0,0,0,10.076,1.014,71.268,71.268,0,0,1,25.281-10.492A8,8,0,0,0,376,305.6V288h16v17.6a8,8,0,0,0,6.408,7.839,71.268,71.268,0,0,1,25.281,10.492,8,8,0,0,0,10.076-1.014l12.461-12.461,11.313,11.314-12.461,12.461a8,8,0,0,0-1.013,10.075,71.276,71.276,0,0,1,10.492,25.281A8,8,0,0,0,462.4,376H480Zm-96-56a48,48,0,1,0,48,48A48.054,48.054,0,0,0,384,336Zm0,80a32,32,0,1,1,32-32A32.036,32.036,0,0,1,384,416Z" style="fill:url(#linear-gradient)"/></svg>
