<?xml version="1.0" encoding="UTF-8"?>
<svg xmlns="http://www.w3.org/2000/svg" xmlns:xlink="http://www.w3.org/1999/xlink" viewBox="0 0 512 512" width="512" height="512"><defs><linearGradient id="linear-gradient" x1="44.343" y1="503.657" x2="507.657" y2="40.343" gradientUnits="userSpaceOnUse"><stop offset="0" stop-color="#41dfd0"/><stop offset="1" stop-color="#ee83ef"/></linearGradient></defs><g id="gradient"><path d="M472,256a8,8,0,0,0,8-8V64a8,8,0,0,0,8-8V24a8,8,0,0,0-8-8H112a8,8,0,0,0-8,8V56a8,8,0,0,0,8,8v48.805A39.977,39.977,0,0,0,88.022,176H74a34.038,34.038,0,0,0-34,34v50a27.838,27.838,0,0,0,2.707,12H32a8,8,0,0,0-8,8v32a8,8,0,0,0,8,8V488a8,8,0,0,0,8,8H472a8,8,0,0,0,8-8V320a8,8,0,0,0,8-8V280a8,8,0,0,0-8-8H168V256ZM120,32H472V48H120ZM464,64V240H168V224h40a8,8,0,0,0,5.657-2.343l36-36A24.808,24.808,0,0,0,256.971,168a25.171,25.171,0,0,0-.529-5.128l29.215-29.215a8,8,0,1,0-11.314-11.314L247.92,148.766a25.006,25.006,0,0,0-33.577,1.577L188.687,176H151.978A39.977,39.977,0,0,0,128,112.805V64ZM96,152a24,24,0,1,1,24,24A24.028,24.028,0,0,1,96,152ZM88,480V458a10.011,10.011,0,0,1,10-10h60a10.011,10.011,0,0,1,10,10v22Zm16-72a24,24,0,1,1,24,24A24.028,24.028,0,0,1,104,408Zm112,72V458a10.011,10.011,0,0,1,10-10h60a10.011,10.011,0,0,1,10,10v22Zm16-72a24,24,0,1,1,24,24A24.028,24.028,0,0,1,232,408Zm112,72V458a10.011,10.011,0,0,1,10-10h60a10.011,10.011,0,0,1,10,10v22Zm16-72a24,24,0,1,1,24,24A24.028,24.028,0,0,1,360,408Zm104,72H440V458a26.028,26.028,0,0,0-24.083-25.922,40,40,0,1,0-63.834,0A26.028,26.028,0,0,0,328,458v22H312V458a26.028,26.028,0,0,0-24.083-25.922,40,40,0,1,0-63.834,0A26.028,26.028,0,0,0,200,458v22H184V458a26.028,26.028,0,0,0-24.083-25.922,40,40,0,1,0-63.834,0A26.028,26.028,0,0,0,72,458v22H48V320H464Zm8-176H40V288H472ZM126.624,272A23.992,23.992,0,0,0,104,240H88V216a8,8,0,0,0-16,0v32a8,8,0,0,0,8,8h24a8,8,0,0,1,0,16H68a12.013,12.013,0,0,1-12-12V210a18.021,18.021,0,0,1,18-18H192a8,8,0,0,0,5.657-2.343l28-28a8.97,8.97,0,1,1,12.686,12.686L204.687,208H160a8,8,0,0,0-8,8v56ZM360,192a56,56,0,1,0-56-56A56.063,56.063,0,0,0,360,192Zm40-56a39.973,39.973,0,0,1-62.042,33.356l27.7-27.7A8,8,0,0,0,368,136V96.805A40.067,40.067,0,0,1,400,136ZM352,96.805v35.882l-25.356,25.355A39.972,39.972,0,0,1,352,96.805ZM320,216a8,8,0,0,1-8,8H280a8,8,0,0,1,0-16h32A8,8,0,0,1,320,216Zm40,0a8,8,0,0,1-8,8h-8a8,8,0,0,1,0-16h8A8,8,0,0,1,360,216Zm-80-40h24a8,8,0,0,1,0,16H280a8,8,0,0,1,0-16Zm112,32h40a8,8,0,0,1,0,16H392a8,8,0,0,1,0-16Z" style="fill:url(#linear-gradient)"/></g></svg>
