<svg id="Gradient" height="512" viewBox="0 0 512 512" width="512" xmlns="http://www.w3.org/2000/svg" xmlns:xlink="http://www.w3.org/1999/xlink"><linearGradient id="linear-gradient" gradientUnits="userSpaceOnUse" x1="256" x2="256" y1="496" y2="16"><stop offset="0" stop-color="#12c2e9"/><stop offset=".5" stop-color="#c471ed"/><stop offset="1" stop-color="#f64f59"/></linearGradient><path d="m464 56a40.047 40.047 0 0 0 -40-40h-336a40.047 40.047 0 0 0 -40 40v240a40.047 40.047 0 0 0 40 40h126.557l-5.333 32h-17.224a8 8 0 0 0 0 16h128a8 8 0 0 0 0-16h-17.224l-5.333-32h126.557a40.047 40.047 0 0 0 40-40zm-376-24h336a24.027 24.027 0 0 1 24 24v200h-384v-200a24.027 24.027 0 0 1 24-24zm198.555 336h-61.11l5.332-32h50.446zm137.445-48h-336a24.027 24.027 0 0 1 -24-24v-24h384v24a24.027 24.027 0 0 1 -24 24zm40 120a24.027 24.027 0 0 0 -24-24h-16a24.027 24.027 0 0 0 -24 24v32a24.027 24.027 0 0 0 24 24h16a24.027 24.027 0 0 0 24-24zm-16 32a8.008 8.008 0 0 1 -8 8h-16a8.008 8.008 0 0 1 -8-8v-32a8.008 8.008 0 0 1 8-8 8 8 0 0 0 16 0 8.008 8.008 0 0 1 8 8zm-88 24a8 8 0 0 0 8-8v-64a8 8 0 0 0 -8-8h-224a8 8 0 0 0 -8 8v64a8 8 0 0 0 8 8zm-216-32h16v16h-16zm144 0v16h-80v-16zm16 0h16v16h-16zm0-16v-16h16v16zm-16 0h-16v-16h16zm-32 0h-16v-16h16zm-32 0h-16v-16h16zm-32 0h-16v-16h16zm0 16v16h-16v-16zm144 16v-16h16v16zm16-32h-16v-16h16zm-192-16v16h-16v-16zm104-136a8 8 0 1 1 -8-8 8 8 0 0 1 8 8z" fill="url(#linear-gradient)"/></svg>