<?xml version="1.0"?>
<svg xmlns="http://www.w3.org/2000/svg" xmlns:xlink="http://www.w3.org/1999/xlink" viewBox="0 0 512 512" width="512" height="512"><defs><linearGradient id="linear-gradient" x1="24.968" y1="417.996" x2="357.632" y2="85.332" gradientUnits="userSpaceOnUse"><stop offset="0" stop-color="#41dfd0"/><stop offset="1" stop-color="#ee83ef"/></linearGradient></defs><g id="gradient"><path d="M333.885,407.115l-12.624,14.023a8,8,0,1,1-11.891-10.7l12.623-14.023a8,8,0,0,1,11.892,10.7Zm37.278-53.366a8,8,0,0,0-11.3.593l-18.936,21.034a8,8,0,1,0,11.892,10.705l18.935-21.034A8,8,0,0,0,371.163,353.749ZM291.134,394.04a8,8,0,0,0-11.293.686l-18.86,21.3a8,8,0,1,0,11.978,10.607l18.86-21.3A8,8,0,0,0,291.134,394.04Zm25.832-17.1,25.148-28.395a8,8,0,0,0-11.978-10.608L304.989,366.33a8,8,0,1,0,11.977,10.608Zm166.82-84.5c.048.229.092.461.121.7a8,8,0,0,1-4.636,8.262,87.978,87.978,0,0,1-31.494,31.879c-.086.188-.172.375-.274.559A7.88,7.88,0,0,1,439,337.8a88.707,88.707,0,0,1-36.052,7.706q-4.178,0-8.329-.4c-.161.089-.32.18-.489.258a7.964,7.964,0,0,1-9.175-1.751,88.511,88.511,0,0,1-40.157-20.2c-.208-.024-.415-.05-.624-.091a8,8,0,0,1-6.405-6.835,87.641,87.641,0,0,1-19.284-34.762c-.489-1.708-.909-3.424-1.294-5.143-.162-.148-.323-.3-.475-.458a8,8,0,0,1-1.153-9.318,86.931,86.931,0,0,1,3.376-35.109l-35.726-23.355L280.543,234.6,307.5,273.915a8,8,0,0,1-1.186,10.416l-65.876,60.5a8,8,0,0,1-3.206,1.8l-27.871,7.991q1.459,1.911,2.806,3.9c.2.074.392.15.586.241a8,8,0,0,1,4.506,8.275,88.935,88.935,0,0,1,4.988,11.331,87.889,87.889,0,0,1,5.111,32.414c.108.166.216.331.312.508a8,8,0,0,1-1.159,9.276,88.56,88.56,0,0,1-17.6,41.361c-.011.208-.022.417-.049.627a8,8,0,0,1-6.416,6.833,87.637,87.637,0,0,1-33.453,21.462c-1.675.6-3.358,1.123-5.043,1.614-.139.174-.28.346-.435.51a7.985,7.985,0,0,1-9.224,1.743,87.518,87.518,0,0,1-44.651-3.955c-.227.064-.456.122-.691.167a7.984,7.984,0,0,1-8.53-4.091A87.971,87.971,0,0,1,66.6,457.439c-.2-.075-.4-.149-.595-.242a8,8,0,0,1-4.507-8.269,87.978,87.978,0,0,1-10.1-43.772c-.1-.161-.218-.315-.312-.487a8,8,0,0,1,1.159-9.275,88.558,88.558,0,0,1,17.6-41.362c.011-.208.022-.416.049-.626a8,8,0,0,1,6.41-6.827,87.63,87.63,0,0,1,33.46-21.468c1.669-.6,3.353-1.123,5.043-1.616.138-.173.279-.344.434-.508a8,8,0,0,1,9.257-1.732,87.365,87.365,0,0,1,36.086,1.326l-1.613-4.255c-.055-.009-.11-.012-.165-.022l-33.314-6.213L88.856,322.6a8,8,0,0,1-7.665-1.843L70.864,311.11,46,318.241a8,8,0,0,1-6.084-.693l-19.79-10.97A8,8,0,0,1,20,292.655l87.91-44.8-42.266-1.8a44.957,44.957,0,0,1-41.359-32.567l-4.719-71.6A90.725,90.725,0,0,1,45.468,76.972,41.219,41.219,0,0,1,61.623,66.76L56.336,61a8,8,0,0,1-.485-10.241L71.382,30.249a51.12,51.12,0,0,1,26.5-18.17,50.47,50.47,0,0,1,38.636,4.4l43.862,24.314a8,8,0,0,1,3.812,4.792l4.41,15.38a8,8,0,0,1-9.157,10.07l-27.306-5.093-5.093,27.306a8,8,0,0,1-3.86,5.459L117.72,113.434l1.656,2.416,97.1,4.129a7.98,7.98,0,0,1,5.725,2.805,22.268,22.268,0,0,1,16.574,3.2l30.782,20.12,28.3-17.645a76.616,76.616,0,0,1,50-10.969l36.319,4.588a8,8,0,0,1,6,11.815,50.18,50.18,0,0,1-39.864,25.736,60.488,60.488,0,0,0-29.217,10.381l-7.3,5,28.612,18.7a87.627,87.627,0,0,1,15.959-12.041c.088-.194.178-.387.283-.577a8,8,0,0,1,8.528-3.972,88.193,88.193,0,0,1,44.318-7.278c.173-.1.346-.194.528-.279a8,8,0,0,1,9.184,1.75,88.555,88.555,0,0,1,40.151,20.207c.207.024.414.048.622.088a8,8,0,0,1,6.4,6.836,87.616,87.616,0,0,1,19.283,34.761c.492,1.715.922,3.433,1.306,5.152.158.145.315.291.464.45a8,8,0,0,1,1.148,9.327A87.694,87.694,0,0,1,483.786,292.434ZM284.326,155.749l14.981,9.792,12.735-8.731A76.523,76.523,0,0,1,349,143.678a34.225,34.225,0,0,0,18.807-7.545l-21.953-2.773a60.588,60.588,0,0,0-39.528,8.672Zm-54.3-16.376a6.3,6.3,0,0,0-2.568-.957l2.989,10.421a7.969,7.969,0,0,1-.465,5.586l163.6,106.945a6.331,6.331,0,0,0,8.321-1.17,6.319,6.319,0,0,0-1.34-9.362l-27.119-17.725-.061-.04ZM414.1,270.548a22.333,22.333,0,0,1-29.3,4.195l-12.368-8.085A32,32,0,1,0,394.255,226.7c-.313.089-.62.193-.929.291l16.017,10.468a22.318,22.318,0,0,1,4.76,33.087Zm-243.5,130.469-12.2,15.631a22.317,22.317,0,0,1-15.449,8.543,23.006,23.006,0,0,1-2.353.121,22.287,22.287,0,0,1-14.508-5.349,22.519,22.519,0,0,1-3.384-30.755l9.365-12.369a31.864,31.864,0,0,0-22.833,41.908,32,32,0,0,0,61.362-17.73Zm.869-49.709-36.007,47.558a6.512,6.512,0,0,0,10.325,7.937l34.716-44.478a7.98,7.98,0,0,1-6.8-5.114ZM226.713,333a20.108,20.108,0,0,0-15.954-15.925l-11.3-2.107a8,8,0,0,1-6.223-5.659l-13.231-46.141-22.4,6.424,28.46,75.063ZM173.88,204.877l45.594-38.207-2.745-1.795-10.313,7.071a8,8,0,0,1-6.955,1.023l-26.056-8.31s-57.46,3.461-58.234,3.461a37.823,37.823,0,0,1-21.58-6.748l-.969,22.77L155.5,195.87A37.929,37.929,0,0,1,173.88,204.877Zm-38.541,47.635-25.63,12.2,1.43,1.556,26.008-7.457Zm105.045,70.643,23.123-21.237L221.15,251.372l-25.763,7.387,11.868,41.388,6.437,1.2A36.163,36.163,0,0,1,240.384,323.155Zm-2.4-144.388-4.511-2.949-49.88,41.8,7.388,25.763,26.8-7.686ZM210.041,135.72l-14.575-.62-9.327,16.826,14.456,4.611,12.883-8.832ZM114.7,131.666a8,8,0,0,1-6.258-3.469l-17.251-25.16A9.294,9.294,0,0,0,84.485,99a9.624,9.624,0,0,0-1.108-.064,9.278,9.278,0,0,0-6.334,2.486,9.4,9.4,0,0,0-1.2,12.555l21.684,29.243a21.919,21.919,0,0,0,19,8.857l53.007-3.215,8.05-14.524Zm21.489-67.454-9.127-.388-1.157,6.2,7.943,6.739ZM72.637,55.1l39.544,43.057,13.172-7.616L112.014,79.223a8,8,0,0,1-2.689-7.568l3.28-17.585a8,8,0,0,1,8.2-6.526l48.282,5.284L128.764,30.475A34.571,34.571,0,0,0,102.3,27.458,35.031,35.031,0,0,0,84.138,39.907Zm-37.075,86.58.619,47.636,40.445-5.591,1.682-39.563L63,123.508A25.41,25.41,0,0,1,77.2,83.721l-2.919-3.179a25.285,25.285,0,0,0-17.353,7.6A74.821,74.821,0,0,0,35.562,141.678ZM66.32,230.071l74.446,3.166a8,8,0,0,1,7.35,5.787l4.41,15.381,23.071-6.616-5.916-20.63A21.879,21.879,0,0,0,152.568,211.6L84.145,198.836l-45.613,6.3,1.129,3.938A28.977,28.977,0,0,0,66.32,230.071Zm-9.094,68.3-5.8-5.413-11.192,6.471,4.535,2.514Zm95.107,2.445-10.162-26.8-31.375,9a7.991,7.991,0,0,1-8.1-2.279l-8.1-8.823L66.6,285.242l22.2,20.725,34.1-9.777a7.987,7.987,0,0,1,3.672-.174Zm28.319,166.165-3.19-.411a8,8,0,1,1,2.043-15.869l16.232,2.089a72.548,72.548,0,0,0,8.715-14.007,73.459,73.459,0,0,0,2.98-7.321L204.63,433a8,8,0,1,1-7.674-14.039l14.382-7.863a71.67,71.67,0,0,0-3.1-24.121l-1.367,2.889a8,8,0,0,1-14.461-6.846l7-14.785c-.49-.741-.984-1.479-1.5-2.2l-15.76,20.192a48.43,48.43,0,0,1,2.425,5.6,47.987,47.987,0,1,1-39.95-31.564l15.957-21.076a71.582,71.582,0,0,0-19.909-3.2l2.332,2.2a8,8,0,0,1-10.98,11.637l-11.883-11.211c-1.676.466-3.345.974-5,1.564a71.788,71.788,0,0,0-17.015,8.8l3.159.406a8,8,0,1,1-2.043,15.869l-16.186-2.083a72.562,72.562,0,0,0-11.688,21.294l2.749-1.5A8,8,0,0,1,81.8,397l-14.336,7.837a71.479,71.479,0,0,0,3.052,24.142l1.366-2.885a8,8,0,1,1,14.461,6.847l-7,14.777A71.625,71.625,0,0,0,96,465.4l-.582-3.091a8,8,0,0,1,15.724-2.961l3.016,16.02a72.039,72.039,0,0,0,23.9,4.588l-2.315-2.184a8,8,0,1,1,10.981-11.638l11.88,11.21c1.672-.465,3.34-.97,5-1.563A72.36,72.36,0,0,0,180.652,466.986ZM264.329,235.9l3.8-37.422-16.37-10.7-18.75,52.839L275.3,291.084l15.074-13.844L265.69,241.232A8,8,0,0,1,264.329,235.9Zm193.276,68.523-3.122.383a8,8,0,1,1-1.95-15.881l16.181-1.987a72.022,72.022,0,0,0,6.106-23.561l-2.328,2.171a8,8,0,0,1-10.912-11.7l11.946-11.14c-.357-1.7-.754-3.4-1.24-5.089a72.35,72.35,0,0,0-7.686-17.573l-.613,3.157a8,8,0,1,1-15.706-3.053l3.122-16.065a71.923,71.923,0,0,0-20.537-13.034l1.349,2.893a8,8,0,1,1-14.5,6.762l-6.928-14.857a71.693,71.693,0,0,0-24.269,1.549l2.8,1.549a8,8,0,1,1-7.757,13.994l-14.312-7.933a71.726,71.726,0,0,0-10.994,7.755l21.4,13.989a48.011,48.011,0,1,1-22.529,38.6L333,240.881A71.126,71.126,0,0,0,331.28,251.6l2.378-2.218a8,8,0,1,1,10.912,11.7l-11.959,11.153c.359,1.7.77,3.391,1.253,5.076a72.35,72.35,0,0,0,7.686,17.573l.614-3.157a8,8,0,1,1,15.706,3.053l-3.123,16.065a72.521,72.521,0,0,0,13.422,9.593,73.267,73.267,0,0,0,7.116,3.442l-1.349-2.894a8,8,0,1,1,14.5-6.761l6.927,14.856a71.7,71.7,0,0,0,24.27-1.548l-2.8-1.55a8,8,0,0,1,7.757-13.994l14.3,7.927A71.634,71.634,0,0,0,457.605,304.422Z" style="fill:url(#linear-gradient)"/></g></svg>
