<svg id="Capa_1" enable-background="new 0 0 512 512" height="512" viewBox="0 0 512 512" width="512" xmlns="http://www.w3.org/2000/svg" xmlns:xlink="http://www.w3.org/1999/xlink"><linearGradient id="SVGID_1_" gradientUnits="userSpaceOnUse" x1="256" x2="256" y1="421" y2="95.391"><stop offset="0" stop-color="#00b59c"/><stop offset="1" stop-color="#9cffac"/></linearGradient><linearGradient id="SVGID_2_" gradientUnits="userSpaceOnUse" x1="256" x2="256" y1="361" y2="91"><stop offset="0" stop-color="#c3ffe8"/><stop offset=".9973" stop-color="#f0fff4"/></linearGradient><g><g><g><path d="m507.609 95.391-211.698 121.884h-79.823l-211.697-121.884c-2.714 2.713-4.391 6.463-4.391 10.609v300c0 8.291 6.709 15 15 15h482c8.291 0 15-6.709 15-15v-300c0-4.146-1.677-7.896-4.391-10.609z" fill="url(#SVGID_1_)"/></g></g><g><g><path d="m445.609 334.472-108.179-90.154 170.179-148.927c-2.713-2.714-6.463-4.391-10.609-4.391h-482c-4.146 0-7.896 1.677-10.609 4.391l170.18 148.927-108.18 90.154c-6.357 5.303-7.222 14.766-1.919 21.138 5.297 6.341 14.729 7.226 21.138 1.919l111.762-93.139 48.717 42.885c5.667 4.988 14.156 4.988 19.823 0l48.719-42.887 111.76 93.14c6.416 5.312 15.846 4.415 21.138-1.919 5.302-6.372 4.438-15.835-1.92-21.137z" fill="url(#SVGID_2_)"/></g></g></g></svg>