<svg id="Capa_1" enable-background="new 0 0 512 512" height="512" viewBox="0 0 512 512" width="512" xmlns="http://www.w3.org/2000/svg" xmlns:xlink="http://www.w3.org/1999/xlink"><linearGradient id="SVGID_1_" gradientUnits="userSpaceOnUse" x1="256" x2="256" y1="421" y2="91"><stop offset="0" stop-color="#00b59c"/><stop offset="1" stop-color="#9cffac"/></linearGradient><g><g><path d="m497 91h-482c-8.284 0-15 6.716-15 15v300c0 8.284 6.716 15 15 15h482c8.284 0 15-6.716 15-15v-300c0-8.284-6.716-15-15-15zm-40.047 29.99c-65.048 56.69-199.003 173.405-200.953 175.114-1.941-1.702-135.615-118.171-200.953-175.114zm25.047 270.01h-452v-252.033l132.481 115.44-96.084 80.07c-6.364 5.304-7.224 14.762-1.921 21.126 5.311 6.374 14.77 7.217 21.126 1.921l99.787-83.156 60.756 52.941c2.825 2.461 6.34 3.691 9.855 3.691s7.03-1.23 9.854-3.691l60.756-52.941 99.787 83.156c6.349 5.291 15.81 4.459 21.126-1.921 5.303-6.364 4.443-15.822-1.921-21.126l-96.084-80.07 132.482-115.441z" fill="url(#SVGID_1_)"/></g></g></svg>