<?xml version="1.0"?>
<svg xmlns="http://www.w3.org/2000/svg" xmlns:xlink="http://www.w3.org/1999/xlink" id="Layer_1" data-name="Layer 1" viewBox="0 0 128 128" width="512" height="512"><defs><linearGradient id="linear-gradient" x1="105.881" y1="105.853" x2="22.141" y2="22.113" gradientUnits="userSpaceOnUse"><stop offset="0" stop-color="#30ade0"/><stop offset="1" stop-color="#85c646"/></linearGradient></defs><title>DOMAIN</title><path d="M29.794,56.625h2.942l3.156,10.563,3.5-10.563h2.92l3.478,10.563,3.156-10.563h2.941l-4.658,14.75H44.544L40.851,60.426,37.137,71.375H34.475Zm23.16,0H55.9l3.155,10.563,3.5-10.563h2.92l3.478,10.563L72.1,56.625h2.942l-4.659,14.75H67.7L64.011,60.426,60.3,71.375H57.634Zm23.16,0h2.941l3.156,10.563,3.5-10.563h2.92l3.478,10.563,3.156-10.563h2.942l-4.659,14.75H90.863L87.17,60.426,83.457,71.375H80.794Zm38.876,37.5a1.714,1.714,0,0,0,.315-.547,59.095,59.095,0,0,0-.022-59.229,1.746,1.746,0,0,0-.215-.382,59.322,59.322,0,0,0-12.651-15.077,1.75,1.75,0,1,0-2.27,2.664,55.908,55.908,0,0,1,10.347,11.7H93.283a74.079,74.079,0,0,0-8.854-21.134,55.429,55.429,0,0,1,8.514,4.226,1.75,1.75,0,0,0,1.82-2.99A58.93,58.93,0,0,0,80.316,7.037c-.046-.015-.091-.03-.138-.041a58.929,58.929,0,0,0-32.055-.049,1.752,1.752,0,0,0-.687.19A59.647,59.647,0,0,0,12.914,33.99a1.676,1.676,0,0,0-.122.209c-.877,1.5-1.7,3.042-2.446,4.632a1.75,1.75,0,1,0,3.168,1.488q.858-1.826,1.839-3.569H33.866c-.735,3.23-1.337,6.578-1.8,10H17.75A1.751,1.751,0,0,0,16,48.5V62.25H8.281c.022-.739.056-1.477.107-2.206A1.75,1.75,0,0,0,4.9,59.8c-.1,1.386-.147,2.8-.147,4.2A58.859,58.859,0,0,0,12.7,93.579a1.714,1.714,0,0,0,.315.547,59.494,59.494,0,0,0,34.5,26.772,1.763,1.763,0,0,0,.481.137,58.944,58.944,0,0,0,32.01,0,1.747,1.747,0,0,0,.505-.143A59.5,59.5,0,0,0,114.99,94.126Zm-49.24,25.58V94.75H89.663c-2.6,9.51-6.341,17.412-10.891,23A55.542,55.542,0,0,1,65.75,119.706Zm-16.522-1.958c-4.55-5.586-8.291-13.487-10.891-23H62.25v24.956A55.542,55.542,0,0,1,49.228,117.748ZM92.4,81.25c-.479,3.431-1.1,6.779-1.862,10H65.75v-10Zm17.847,0A1.751,1.751,0,0,0,112,79.5V65.75h7.706a55.363,55.363,0,0,1-7.1,25.5H94.134c.735-3.23,1.337-6.578,1.8-10Zm-25.8,34.6a74.1,74.1,0,0,0,8.83-21.1h17.189A56.049,56.049,0,0,1,84.453,115.846ZM119.7,62.25H112V48.5a1.751,1.751,0,0,0-1.75-1.75H95.935c-.464-3.423-1.066-6.77-1.8-10h18.485A55.638,55.638,0,0,1,119.7,62.25ZM90.541,36.75c.759,3.22,1.382,6.569,1.862,10H65.75v-10Zm-.878-3.5H65.75V8.28a55.868,55.868,0,0,1,13.008,1.955C83.315,15.822,87.061,23.73,89.663,33.25ZM62.25,8.282V33.25H38.337c2.595-9.5,6.33-17.388,10.871-22.973A55.308,55.308,0,0,1,62.25,8.282Zm-18.725,3.9A74.214,74.214,0,0,0,34.717,33.25H17.5A56.159,56.159,0,0,1,43.525,12.187ZM37.459,36.75H62.25v10H35.6C36.076,43.319,36.7,39.971,37.459,36.75ZM19.5,50.25h89v27.5H55.167a1.75,1.75,0,0,0,0,3.5H62.25v10H37.459c-.759-3.221-1.382-6.569-1.862-10h7.9a1.75,1.75,0,0,0,0-3.5h-24Zm-1.75,31H32.065c.464,3.423,1.066,6.77,1.8,10H15.39a55.363,55.363,0,0,1-7.1-25.5H16V79.5A1.751,1.751,0,0,0,17.75,81.25Zm-.222,13.5H34.717a74.116,74.116,0,0,0,8.829,21.1A56.058,56.058,0,0,1,17.528,94.75ZM7.5,53.117a1.746,1.746,0,0,0,2.09-1.326c.345-1.545.761-3.091,1.236-4.595a1.75,1.75,0,1,0-3.338-1.053c-.5,1.6-.947,3.242-1.314,4.885A1.75,1.75,0,0,0,7.5,53.117Z" style="fill:url(#linear-gradient)"/></svg>
